<svg width="28" height="28" viewBox="0 0 28 28" fill="none" xmlns="http://www.w3.org/2000/svg">
<g clip-path="url(#clip0_601_1701)">
<path d="M3.79578 15.54C3.79578 21.4145 8.50978 26.1286 14.3724 26.1286C20.235 26.1286 24.937 21.4145 24.937 15.54C24.937 14.9658 24.5301 14.547 23.9439 14.547C23.3816 14.547 23.0107 14.9658 23.0107 15.54C23.0107 20.3498 19.1701 24.2023 14.3724 24.2023C9.57461 24.2023 5.72206 20.3498 5.72206 15.54C5.72206 10.7423 9.57461 6.9017 14.3724 6.9017C15.2817 6.9017 16.1312 6.97348 16.837 7.14099L13.2597 10.6825C13.0802 10.8739 12.9845 11.1132 12.9845 11.3644C12.9845 11.9148 13.3913 12.3216 13.9297 12.3216C14.2288 12.3216 14.4561 12.2259 14.6236 12.0464L19.5529 7.09313C19.7683 6.88974 19.8521 6.65044 19.8521 6.37526C19.8521 6.11205 19.7444 5.84883 19.5529 5.6574L14.6236 0.656257C14.4561 0.464826 14.2168 0.36911 13.9297 0.36911C13.3913 0.36911 12.9845 0.79983 12.9845 1.3502C12.9845 1.60145 13.0802 1.84074 13.2477 2.03217L16.4302 5.17882C15.8081 5.05917 15.1022 4.97543 14.3724 4.97543C8.50978 4.97543 3.79578 9.67746 3.79578 15.54Z" fill="black"/>
</g>
<defs>
<clipPath id="clip0_601_1701">
<rect width="28" height="28" fill="white"/>
</clipPath>
</defs>
</svg>
