<svg width="50" height="50" viewBox="0 0 50 50" fill="none" xmlns="http://www.w3.org/2000/svg">
<g clip-path="url(#clip0_213_10506)">
<g clip-path="url(#clip1_213_10506)">
<path d="M25.1983 16.8333L32.8283 24.4633C33.0439 24.6806 33.1654 24.9739 33.1667 25.28V33.1667H29.6667V26.1667C29.6667 25.5223 29.1443 25 28.5 25H21.5C20.8557 25 20.3333 25.5223 20.3333 26.1667V33.1667H16.8333V25.28C16.8346 24.9739 16.9561 24.6806 17.1717 24.4633L24.8017 16.8333H25.1983ZM25.6883 14.5H24.3117C24.0056 14.5013 23.7123 14.6228 23.495 14.8383L15.5267 22.8067C14.8701 23.4624 14.5008 24.3521 14.5 25.28V34.3333C14.5 34.9777 15.0223 35.5 15.6667 35.5H21.5C22.1443 35.5 22.6667 34.9777 22.6667 34.3333V27.625C22.6667 27.4639 22.7972 27.3333 22.9583 27.3333H27.0417C27.2027 27.3333 27.3333 27.4639 27.3333 27.625V34.3333C27.3333 34.9777 27.8557 35.5 28.5 35.5H34.3333C34.9777 35.5 35.5 34.9777 35.5 34.3333V25.28C35.4992 24.3521 35.1299 23.4624 34.4733 22.8067L26.505 14.8383C26.2877 14.6228 25.9944 14.5013 25.6883 14.5Z" fill="black"/>
</g>
</g>
<defs>
<clipPath id="clip0_213_10506">
<rect width="50" height="50" rx="25" fill="white"/>
</clipPath>
<clipPath id="clip1_213_10506">
<rect width="28" height="28" fill="white" transform="translate(11 11)"/>
</clipPath>
</defs>
</svg>
