<svg width="50" height="50" viewBox="0 0 50 50" fill="none" xmlns="http://www.w3.org/2000/svg">
<g clip-path="url(#clip0_213_10516)">
<g clip-path="url(#clip1_213_10516)">
<path d="M34.9167 14.5H34.5667C34.2586 14.4985 33.9533 14.5579 33.6683 14.675L28.5 16.8333L23.5417 14.7683C23.1165 14.5915 22.6605 14.5003 22.2 14.5H20.8C20.3395 14.5003 19.8836 14.5915 19.4583 14.7683L15.2233 16.53C14.7838 16.7106 14.4976 17.1398 14.5 17.615V34.9167C14.5 35.2388 14.7612 35.5 15.0833 35.5H15.4333C15.7414 35.5015 16.0467 35.4421 16.3317 35.325L21.5 33.1667L26.4583 35.2317C26.8836 35.4085 27.3395 35.4997 27.8 35.5H29.2C29.6605 35.4997 30.1165 35.4085 30.5417 35.2317L34.7767 33.47C35.2163 33.2894 35.5024 32.8602 35.5 32.385V15.0833C35.5 14.7612 35.2388 14.5 34.9167 14.5ZM16.8333 18.385L20.3333 16.9267V31.125L16.8333 32.5833V18.385ZM22.6667 31.125V16.9267L27.3333 18.875V33.0733L22.6667 31.125ZM33.1667 31.615L29.6667 33.0733V18.875L33.1667 17.4167V31.615Z" fill="black"/>
</g>
</g>
<defs>
<clipPath id="clip0_213_10516">
<rect width="50" height="50" rx="25" fill="white"/>
</clipPath>
<clipPath id="clip1_213_10516">
<rect width="28" height="28" fill="white" transform="translate(11 11)"/>
</clipPath>
</defs>
</svg>
