<svg width="50" height="50" viewBox="0 0 50 50" fill="none" xmlns="http://www.w3.org/2000/svg">
<g clip-path="url(#clip0_213_10526)">
<g clip-path="url(#clip1_213_10526)">
<path d="M32 15.6667C33.2887 15.6667 34.3334 16.7113 34.3334 18V27.3333C34.3334 28.622 33.2887 29.6667 32 29.6667H20.3334C18.7852 29.6639 17.2995 30.2767 16.2034 31.37L15.6667 31.86V18C15.6667 16.7113 16.7114 15.6667 18 15.6667H32ZM32 13.3333H18C15.4227 13.3333 13.3334 15.4227 13.3334 18V36.0833C13.3334 36.4055 13.5945 36.6667 13.9167 36.6667C14.0708 36.6658 14.2181 36.6027 14.325 36.4917L17.825 32.9917C18.4951 32.3393 19.3984 31.9822 20.3334 32H32C34.5774 32 36.6667 29.9107 36.6667 27.3333V18C36.6667 15.4227 34.5774 13.3333 32 13.3333Z" fill="black"/>
</g>
</g>
<defs>
<clipPath id="clip0_213_10526">
<rect width="50" height="50" rx="25" fill="white"/>
</clipPath>
<clipPath id="clip1_213_10526">
<rect width="28" height="28" fill="white" transform="translate(11 11)"/>
</clipPath>
</defs>
</svg>
