<svg width="50" height="50" viewBox="0 0 50 50" fill="none" xmlns="http://www.w3.org/2000/svg">
<g clip-path="url(#clip0_213_10496)">
<g clip-path="url(#clip1_213_10496)">
<path d="M35.3542 33.7036L30.6875 29.0313C30.5363 28.8764 30.368 28.7393 30.1858 28.6225L29.0192 27.8165C31.4189 24.8436 31.4412 20.6028 29.0728 17.6048C26.7045 14.6068 22.5775 13.6516 19.1353 15.3049C15.693 16.9581 13.8542 20.7785 14.7073 24.5043C15.5605 28.23 18.878 30.8668 22.6958 30.8535C24.5486 30.8541 26.3464 30.2239 27.7942 29.0664L28.6692 30.2344C28.773 30.3849 28.8901 30.5256 29.0192 30.655L33.6858 35.3272C33.7954 35.4378 33.9445 35.5 34.1 35.5C34.2555 35.5 34.4046 35.4378 34.5142 35.3272L35.3308 34.5096C35.5523 34.2903 35.5626 33.9354 35.3542 33.7036ZM22.6958 28.5174C19.4742 28.5174 16.8625 25.9026 16.8625 22.677C16.8625 19.4515 19.4742 16.8366 22.6958 16.8366C25.9175 16.8366 28.5292 19.4515 28.5292 22.677C28.5292 24.226 27.9146 25.7115 26.8206 26.8068C25.7267 27.9021 24.2429 28.5174 22.6958 28.5174Z" fill="black"/>
</g>
</g>
<defs>
<clipPath id="clip0_213_10496">
<rect width="50" height="50" rx="25" fill="white"/>
</clipPath>
<clipPath id="clip1_213_10496">
<rect width="28" height="28" fill="white" transform="translate(11 11)"/>
</clipPath>
</defs>
</svg>
